<svg width="9" height="15" viewBox="0 0 9 15" fill="none" xmlns="http://www.w3.org/2000/svg">
<path d="M7.91642 9.16602H0.416832C0.339459 9.16598 0.263605 9.1875 0.197769 9.22814C0.131933 9.26879 0.0787152 9.32697 0.044079 9.39616C0.00944281 9.46535 -0.00524391 9.54281 0.00166421 9.61988C0.00857233 9.69694 0.0368025 9.77056 0.0831918 9.83248L3.83299 14.8322C3.87184 14.8839 3.92221 14.926 3.98012 14.9549C4.03803 14.9839 4.10188 14.999 4.16663 14.999C4.23137 14.999 4.29523 14.9839 4.35314 14.9549C4.41104 14.926 4.46142 14.8839 4.50027 14.8322L8.25006 9.83242C8.29644 9.7705 8.32465 9.69688 8.33155 9.61983C8.33845 9.54277 8.32376 9.46532 8.28912 9.39614C8.25449 9.32697 8.20128 9.2688 8.13545 9.22815C8.06963 9.18751 7.99379 9.16599 7.91642 9.16602Z" fill="#898989"/>
<path d="M0.41703 5.83294H7.91662C7.99399 5.83298 8.06985 5.81146 8.13568 5.77081C8.20152 5.73017 8.25474 5.67199 8.28937 5.6028C8.32401 5.53361 8.3387 5.45615 8.33179 5.37908C8.32488 5.30202 8.29665 5.2284 8.25026 5.16647L4.50047 0.166803C4.46162 0.115012 4.41124 0.072976 4.35333 0.0440243C4.29542 0.0150726 4.23157 0 4.16683 0C4.10208 0 4.03823 0.0150726 3.98032 0.0440243C3.92241 0.072976 3.87204 0.115012 3.83318 0.166803L0.0833892 5.16654C0.0370179 5.22846 0.00880268 5.30208 0.00190417 5.37913C-0.00499433 5.45618 0.00969605 5.53364 0.0443301 5.60282C0.0789642 5.67199 0.132174 5.73016 0.198 5.77081C0.263825 5.81145 0.339667 5.83297 0.41703 5.83294Z" fill="#898989"/>
</svg>
