<svg width="35" height="32" viewBox="0 0 35 32" fill="none" xmlns="http://www.w3.org/2000/svg">
<path d="M32.0211 0H2.97931C1.33624 0 0 1.3698 0 3.05326V28.9467C0 30.6302 1.33663 32 2.97931 32H32.0207C33.6638 32 35 30.6302 35 28.9467V3.05326C35 1.3698 33.6638 0 32.0211 0ZM2.97931 1.08723H32.0207C33.0789 1.08723 33.9395 1.96921 33.9395 3.05326V5.42141H1.06051V3.05326C1.06051 1.96921 1.92113 1.08723 2.97931 1.08723ZM32.0207 30.9132H2.97931C1.92113 30.9132 1.06051 30.0312 1.06051 28.9471V6.50824H33.9399V28.9467C33.9399 30.0308 33.0793 30.9128 32.0211 30.9128L32.0207 30.9132ZM30.7428 4.76381C31.5552 4.76381 32.2159 4.08668 32.2159 3.25412C32.2159 2.42156 31.5552 1.74443 30.7428 1.74443C29.9304 1.74443 29.2697 2.42156 29.2697 3.25412C29.2697 4.08668 29.9304 4.76381 30.7428 4.76381ZM30.7428 2.83127C30.9703 2.83127 31.1554 3.02097 31.1554 3.25412C31.1554 3.48727 30.9703 3.67698 30.7428 3.67698C30.5153 3.67698 30.3306 3.48727 30.3306 3.25412C30.3306 3.02097 30.5157 2.83127 30.7428 2.83127ZM26.4541 4.76381C27.2661 4.76381 27.9272 4.08668 27.9272 3.25412C27.9272 2.42156 27.2665 1.74443 26.4541 1.74443C25.6417 1.74443 24.9809 2.42156 24.9809 3.25412C24.9809 4.08668 25.6417 4.76381 26.4541 4.76381ZM26.4541 2.83127C26.6816 2.83127 26.8663 3.02097 26.8663 3.25412C26.8663 3.48727 26.6812 3.67698 26.4541 3.67698C26.227 3.67698 26.0415 3.48727 26.0415 3.25412C26.0415 3.02097 26.2266 2.83127 26.4541 2.83127ZM22.165 4.76381C22.9774 4.76381 23.6381 4.08668 23.6381 3.25412C23.6381 2.42156 22.9774 1.74443 22.165 1.74443C21.3526 1.74443 20.6918 2.42156 20.6918 3.25412C20.6918 4.08668 21.3526 4.76381 22.165 4.76381ZM22.165 2.83127C22.3925 2.83127 22.5776 3.02097 22.5776 3.25412C22.5776 3.48727 22.3925 3.67698 22.165 3.67698C21.9375 3.67698 21.7527 3.48727 21.7527 3.25412C21.7527 3.02097 21.9379 2.83127 22.165 2.83127ZM28.8127 25.4324H27.4819V11.4446C27.4819 11.1445 27.2447 10.901 26.9515 10.901H24.433C24.1402 10.901 23.9025 11.1441 23.9025 11.4446V25.4324H22.0195V14.1284C22.0195 13.8283 21.7823 13.5848 21.4891 13.5848H18.971C18.6782 13.5848 18.4405 13.8279 18.4405 14.1284V25.4324H16.5571V18.4012C16.5571 18.1011 16.3199 17.8576 16.0267 17.8576H13.5086C13.2158 17.8576 12.9781 18.1007 12.9781 18.4012V25.4324H11.0951V17.0872C11.0951 16.7871 10.8579 16.5436 10.5647 16.5436H8.0462C7.75336 16.5436 7.51575 16.7867 7.51575 17.0872V25.4324H6.18496C5.89212 25.4324 5.65451 25.6755 5.65451 25.976C5.65451 26.2765 5.89173 26.5196 6.18496 26.5196H28.8115C29.1044 26.5196 29.342 26.2765 29.342 25.976C29.342 25.6755 29.1048 25.4324 28.8115 25.4324H28.8127ZM8.57743 25.4324V17.6304H10.0354V25.4324H8.57743ZM14.0394 25.4324V18.9448H15.497V25.4324H14.0394ZM19.5014 25.4324V14.672H20.959V25.4324H19.5014ZM24.9631 25.4324V11.9882H26.421V25.4324H24.9631Z" fill="#444444"/>
</svg>
