<svg width="21" height="15" viewBox="0 0 21 15" fill="none" xmlns="http://www.w3.org/2000/svg">
<path d="M19.9497 9.1308e-08H1.05043C0.855449 -8.20374e-05 0.664294 0.0552415 0.498385 0.159772C0.332475 0.264302 0.198365 0.413911 0.111081 0.591835C0.0237962 0.769759 -0.0132149 0.96897 0.00419387 1.16715C0.0216026 1.36533 0.0927437 1.55465 0.209646 1.71389L9.65927 14.571C9.75717 14.7042 9.88412 14.8123 10.0301 14.8868C10.176 14.9612 10.3369 15 10.5001 15C10.6632 15 10.8241 14.9612 10.9701 14.8868C11.116 14.8123 11.2429 14.7042 11.3408 14.571L20.7905 1.71373C20.9073 1.55448 20.9784 1.36518 20.9958 1.16703C21.0132 0.968874 20.9762 0.769695 20.8889 0.591798C20.8016 0.413902 20.6675 0.264315 20.5016 0.159792C20.3358 0.0552699 20.1446 -5.96692e-05 19.9497 9.1308e-08Z" fill="#F1F1F1"/>
</svg>
