<svg width="39" height="39" viewBox="0 0 39 39" fill="none" xmlns="http://www.w3.org/2000/svg">
<path d="M31.1426 0H7C5.14412 0.00206453 3.36484 0.740225 2.05253 2.05253C0.740225 3.36484 0.00206453 5.14412 0 7V31.1426C0.00206453 32.9985 0.740225 34.7778 2.05253 36.0901C3.36484 37.4024 5.14412 38.1405 7 38.1426H31.1426C32.9985 38.1405 34.7778 37.4024 36.0901 36.0901C37.4024 34.7778 38.1405 32.9985 38.1426 31.1426V7C38.1405 5.14412 37.4024 3.36484 36.0901 2.05253C34.7778 0.740225 32.9985 0.00206453 31.1426 0ZM36.1426 31.1426C36.141 32.4682 35.6138 33.7391 34.6764 34.6764C33.7391 35.6138 32.4682 36.141 31.1426 36.1426H7C5.6744 36.141 4.40353 35.6138 3.46619 34.6764C2.52885 33.7391 2.00156 32.4682 2 31.1426V7C2.00156 5.6744 2.52885 4.40353 3.46619 3.46619C4.40353 2.52885 5.6744 2.00156 7 2H31.1426C32.4682 2.00156 33.7391 2.52885 34.6764 3.46619C35.6138 4.40353 36.141 5.6744 36.1426 7V31.1426ZM26.2857 12.5635C26.2869 13.7834 26.0204 14.9887 25.505 16.0943C24.9896 17.1999 24.2378 18.179 23.3027 18.9624L22.249 19.8462C21.3536 20.5964 20.6337 21.5339 20.1402 22.5926C19.6466 23.6514 19.3914 24.8055 19.3926 25.9736C19.3926 26.2388 19.2872 26.4932 19.0997 26.6807C18.9122 26.8682 18.6578 26.9736 18.3926 26.9736C18.1274 26.9736 17.873 26.8682 17.6855 26.6807C17.498 26.4932 17.3926 26.2388 17.3926 25.9736C17.3911 24.5133 17.71 23.0705 18.327 21.7469C18.944 20.4234 19.844 19.2514 20.9634 18.3136L22.0171 17.4298C22.7282 16.8339 23.2999 16.0893 23.6919 15.2484C24.0839 14.4075 24.2866 13.4909 24.2857 12.5631C24.2841 11.3796 23.8132 10.245 22.9763 9.40819C22.1394 8.57136 21.0048 8.10058 19.8213 8.0991H18.3213C17.1377 8.10058 16.003 8.57141 15.1661 9.40833C14.3292 10.2452 13.8584 11.3799 13.8569 12.5635C13.8569 12.8287 13.7515 13.0831 13.564 13.2706C13.3765 13.4581 13.1221 13.5635 12.8569 13.5635C12.5917 13.5635 12.3373 13.4581 12.1498 13.2706C11.9623 13.0831 11.8569 12.8287 11.8569 12.5635C11.8588 10.8496 12.5405 9.2065 13.7524 7.99461C14.9643 6.78272 16.6074 6.10103 18.3213 6.0991H19.8213C21.5352 6.10103 23.1783 6.78272 24.3902 7.99461C25.6021 9.2065 26.2838 10.8496 26.2857 12.5635ZM19.8383 30.0535C19.8383 30.3394 19.7536 30.6189 19.5947 30.8567C19.4359 31.0944 19.2101 31.2797 18.946 31.3891C18.6818 31.4986 18.3912 31.5272 18.1107 31.4714C17.8303 31.4157 17.5727 31.278 17.3705 31.0758C17.1684 30.8737 17.0307 30.6161 16.9749 30.3357C16.9191 30.0552 16.9477 29.7646 17.0571 29.5004C17.1665 29.2363 17.3518 29.0105 17.5896 28.8516C17.8273 28.6928 18.1068 28.608 18.3927 28.608C18.7761 28.608 19.1437 28.7603 19.4148 29.0313C19.6859 29.3024 19.8382 29.6701 19.8383 30.0535Z" fill="black"/>
</svg>
