<svg width="42" height="42" viewBox="0 0 42 42" fill="none" xmlns="http://www.w3.org/2000/svg">
<path d="M17.5 31.5H8.75C7.35761 31.5 6.02226 30.9469 5.03769 29.9623C4.05312 28.9777 3.5 27.6424 3.5 26.25V24.5" stroke="#444444" stroke-width="2" stroke-linecap="round" stroke-linejoin="round"/>
<path d="M24.5 3.5C25.4283 3.5 26.3185 3.86875 26.9749 4.52513C27.6313 5.1815 28 6.07174 28 7V14C28 14.9283 27.6313 15.8185 26.9749 16.4749C26.3185 17.1313 25.4283 17.5 24.5 17.5" stroke="#444444" stroke-width="2" stroke-linecap="round" stroke-linejoin="round"/>
<path d="M35 3.5C35.9283 3.5 36.8185 3.86875 37.4749 4.52513C38.1313 5.1815 38.5 6.07174 38.5 7V14C38.5 14.9283 38.1313 15.8185 37.4749 16.4749C36.8185 17.1313 35.9283 17.5 35 17.5" stroke="#444444" stroke-width="2" stroke-linecap="round" stroke-linejoin="round"/>
<path d="M12.25 36.75L17.5 31.5L12.25 26.25" stroke="#444444" stroke-width="2" stroke-linecap="round" stroke-linejoin="round"/>
<path d="M35 24.5H28C26.067 24.5 24.5 26.067 24.5 28V35C24.5 36.933 26.067 38.5 28 38.5H35C36.933 38.5 38.5 36.933 38.5 35V28C38.5 26.067 36.933 24.5 35 24.5Z" stroke="#444444" stroke-width="2" stroke-linecap="round" stroke-linejoin="round"/>
<path d="M14 3.5H7C5.067 3.5 3.5 5.067 3.5 7V14C3.5 15.933 5.067 17.5 7 17.5H14C15.933 17.5 17.5 15.933 17.5 14V7C17.5 5.067 15.933 3.5 14 3.5Z" stroke="#444444" stroke-width="2" stroke-linecap="round" stroke-linejoin="round"/>
</svg>
