<svg width="29" height="32" viewBox="0 0 29 32" fill="none" xmlns="http://www.w3.org/2000/svg">
<path d="M13.1815 31.6364C10.4569 31.6364 8.23828 29.4192 8.23828 26.6932C8.23828 26.1475 8.68119 25.7046 9.22692 25.7046C9.77265 25.7046 10.2156 26.1475 10.2156 26.6932C10.2156 28.3292 11.5469 29.6591 13.1815 29.6591C14.816 29.6591 16.1474 28.3292 16.1474 26.6932C16.1474 26.1475 16.5903 25.7046 17.136 25.7046C17.6817 25.7046 18.1246 26.1475 18.1246 26.6932C18.1246 29.4192 15.9062 31.6364 13.1815 31.6364Z" fill="black"/>
<path d="M24.0567 27.6818H2.30674C1.03474 27.6818 0 26.6471 0 25.3751C0 24.7 0.293984 24.0609 0.806645 23.6218C0.839713 23.5929 0.875193 23.5665 0.912122 23.5427C2.84715 21.8541 3.95454 19.4247 3.95454 16.8595V13.1818C3.95454 8.09378 8.09494 3.95459 13.1817 3.95459C13.3927 3.95459 13.6208 3.95845 13.8317 3.99417C14.3707 4.08372 14.7347 4.59397 14.6449 5.13173C14.5553 5.6695 14.0359 6.03348 13.5073 5.94369C13.4019 5.92655 13.286 5.93186 13.1817 5.93186C9.18519 5.93186 5.93181 9.18379 5.93181 13.1818V16.8595C5.93181 20.0443 4.53575 23.0577 2.10519 25.1258C2.0854 25.1417 2.06827 25.1562 2.04703 25.1707C2.01154 25.2156 1.97727 25.2841 1.97727 25.3751C1.97727 25.5542 2.12764 25.7046 2.30674 25.7046H24.0567C24.236 25.7046 24.3864 25.5542 24.3864 25.3751C24.3864 25.2827 24.3521 25.2156 24.3152 25.1707C24.2954 25.1562 24.2783 25.1417 24.2585 25.1258C21.8265 23.0563 20.4319 20.0443 20.4319 16.8595V15.4229C20.4319 14.8771 20.8748 14.4342 21.4205 14.4342C21.9662 14.4342 22.4091 14.8771 22.4091 15.4229V16.8595C22.4091 19.4262 23.5177 21.8567 25.4554 23.5468C25.4909 23.5704 25.5252 23.5955 25.5568 23.6233C26.0697 24.0609 26.3637 24.7 26.3637 25.3751C26.3637 26.6471 25.329 27.6818 24.0567 27.6818Z" fill="black"/>
<path d="M22.4093 13.1817C18.7751 13.1817 15.8184 10.2252 15.8184 6.59098C15.8184 2.95673 18.7751 0 22.4093 0C26.0436 0 29.0001 2.95673 29.0001 6.59098C29.0001 10.2252 26.0436 13.1817 22.4093 13.1817ZM22.4093 1.97727C19.8651 1.97727 17.7956 4.04674 17.7956 6.59098C17.7956 9.13498 19.8651 11.2045 22.4093 11.2045C24.9533 11.2045 27.0228 9.13498 27.0228 6.59098C27.0228 4.04674 24.9533 1.97727 22.4093 1.97727Z" fill="black"/>
</svg>
