<svg width="28" height="28" viewBox="0 0 28 28" fill="none" xmlns="http://www.w3.org/2000/svg">
<path d="M14.0013 16.3346C15.29 16.3346 16.3346 15.29 16.3346 14.0013C16.3346 12.7126 15.29 11.668 14.0013 11.668C12.7126 11.668 11.668 12.7126 11.668 14.0013C11.668 15.29 12.7126 16.3346 14.0013 16.3346Z" stroke="#7C7B7B" stroke-width="2" stroke-linecap="round" stroke-linejoin="round"/>
<path d="M15.6328 12.3654L22.1661 5.83203" stroke="#7C7B7B" stroke-width="2" stroke-linecap="round" stroke-linejoin="round"/>
<path d="M4.4914 10.0576C4.32112 9.29054 4.34727 8.49291 4.56742 7.73866C4.78757 6.9844 5.19461 6.29795 5.75078 5.74294C6.30696 5.18793 6.99426 4.78233 7.74898 4.56375C8.50369 4.34518 9.30138 4.3207 10.0681 4.49259C10.4901 3.83261 11.0714 3.28948 11.7585 2.91326C12.4456 2.53704 13.2164 2.33984 13.9997 2.33984C14.7831 2.33984 15.5539 2.53704 16.241 2.91326C16.9281 3.28948 17.5094 3.83261 17.9314 4.49259C18.6993 4.31996 19.4983 4.34432 20.2542 4.56343C21.0102 4.78253 21.6984 5.18926 22.2549 5.74577C22.8114 6.30229 23.2181 6.99051 23.4372 7.74643C23.6563 8.50235 23.6807 9.3014 23.5081 10.0693C24.1681 10.4913 24.7112 11.0726 25.0874 11.7597C25.4636 12.4468 25.6608 13.2176 25.6608 14.0009C25.6608 14.7843 25.4636 15.555 25.0874 16.2422C24.7112 16.9293 24.1681 17.5106 23.5081 17.9326C23.68 18.6993 23.6555 19.497 23.4369 20.2517C23.2183 21.0064 22.8127 21.6937 22.2577 22.2499C21.7027 22.8061 21.0163 23.2131 20.262 23.4332C19.5078 23.6534 18.7101 23.6795 17.9431 23.5093C17.5216 24.1718 16.9398 24.7172 16.2515 25.0951C15.5633 25.473 14.7908 25.6712 14.0056 25.6712C13.2204 25.6712 12.4479 25.473 11.7596 25.0951C11.0713 24.7172 10.4895 24.1718 10.0681 23.5093C9.30138 23.6812 8.50369 23.6567 7.74898 23.4381C6.99426 23.2195 6.30696 22.8139 5.75078 22.2589C5.19461 21.7039 4.78757 21.0175 4.56742 20.2632C4.34727 19.5089 4.32112 18.7113 4.4914 17.9443C3.82635 17.5234 3.27855 16.9411 2.89896 16.2517C2.51937 15.5622 2.32031 14.788 2.32031 14.0009C2.32031 13.2139 2.51937 12.4396 2.89896 11.7502C3.27855 11.0607 3.82635 10.4785 4.4914 10.0576Z" stroke="#7C7B7B" stroke-width="2" stroke-linecap="round" stroke-linejoin="round"/>
</svg>
