<svg width="42" height="42" viewBox="0 0 42 42" fill="none" xmlns="http://www.w3.org/2000/svg">
<path d="M26.25 3.5H10.5C9.57174 3.5 8.6815 3.86875 8.02513 4.52513C7.36875 5.1815 7 6.07174 7 7V35C7 35.9283 7.36875 36.8185 8.02513 37.4749C8.6815 38.1313 9.57174 38.5 10.5 38.5H31.5C32.4283 38.5 33.3185 38.1313 33.9749 37.4749C34.6313 36.8185 35 35.9283 35 35V12.25L26.25 3.5Z" stroke="#444444" stroke-width="1.5" stroke-linecap="round" stroke-linejoin="round"/>
<path d="M24.5 3.5V10.5C24.5 11.4283 24.8687 12.3185 25.5251 12.9749C26.1815 13.6313 27.0717 14 28 14H35" stroke="#444444" stroke-width="1.5" stroke-linecap="round" stroke-linejoin="round"/>
<path d="M28 22.75L21.875 28.875L18.375 25.375L14 29.75" stroke="#444444" stroke-width="1.5" stroke-linecap="round" stroke-linejoin="round"/>
</svg>
