<svg width="28" height="42" viewBox="0 0 28 42" fill="none" xmlns="http://www.w3.org/2000/svg">
<path d="M14 0C6.28069 0 0 6.28069 0 14V27.8744C0 35.5942 6.28069 41.8744 14 41.8744C21.7193 41.8744 28 35.5942 28 27.8744V14C28 6.28069 21.7193 0 14 0ZM24.5319 29.2683C24.1913 29.6089 23.639 29.6089 23.2984 29.2683L22.6387 28.6076C22.1395 32.9342 18.4582 36.3069 14 36.3069C9.54178 36.3069 5.86055 32.9351 5.36132 28.6076L4.70203 29.2683C4.36145 29.6089 3.80871 29.6089 3.46813 29.2683C3.12755 28.9287 3.12755 28.3755 3.46813 28.0349L5.5544 25.9468C5.88102 25.6197 6.46122 25.6197 6.7883 25.9468L8.87644 28.0349C9.21702 28.3755 9.21702 28.9278 8.87644 29.2683C8.70615 29.4386 8.48282 29.5238 8.25949 29.5238C8.03662 29.5238 7.81329 29.4386 7.64301 29.2683L7.15028 28.7756C7.66069 31.7715 10.0894 34.1178 13.1276 34.5017V21.6956H11.3917C10.9097 21.6956 10.5193 21.3048 10.5193 20.8232C10.5193 20.3412 10.9097 19.9508 11.3917 19.9508H13.1276V17.3583C11.6318 16.9684 10.5193 15.6168 10.5193 14C10.5193 12.0808 12.0808 10.5188 14 10.5188C15.9202 10.5188 17.4816 12.0803 17.4816 14C17.4816 15.6173 16.3687 16.9684 14.8724 17.3583V19.9508H16.6092C17.0913 19.9508 17.4816 20.3412 17.4816 20.8232C17.4816 21.3048 17.0913 21.6956 16.6092 21.6956H14.8724V34.5017C17.9101 34.1183 20.3393 31.772 20.8497 28.7756L20.357 29.2683C20.1867 29.4386 19.9634 29.5238 19.7405 29.5238C19.5172 29.5238 19.2939 29.4386 19.1236 29.2683C18.783 28.9278 18.783 28.3755 19.1236 28.0349L21.2117 25.9468C21.3755 25.783 21.5965 25.6909 21.8282 25.6909C22.0599 25.6909 22.2818 25.783 22.4451 25.9468L24.5314 28.0349C24.8725 28.3755 24.8725 28.9287 24.5319 29.2683Z" fill="#444444"/>
</svg>
