<svg width="33" height="31" viewBox="0 0 33 31" fill="none" xmlns="http://www.w3.org/2000/svg">
<path d="M30.525 0H7.425C6.76879 0.000647912 6.13964 0.258703 5.67563 0.717533C5.21162 1.17636 4.95065 1.79848 4.95 2.44737V4.89474H2.475C1.81879 4.89538 1.18964 5.15344 0.725634 5.61227C0.261624 6.0711 0.000655227 6.69322 0 7.3421V28.5526C0.000655227 29.2015 0.261624 29.8236 0.725634 30.2825C1.18964 30.7413 1.81879 30.9994 2.475 31H25.575C26.2312 30.9994 26.8604 30.7413 27.3244 30.2825C27.7884 29.8236 28.0493 29.2015 28.05 28.5526V26.1053H30.525C31.1812 26.1046 31.8104 25.8466 32.2744 25.3877C32.7384 24.9289 32.9993 24.3068 33 23.6579V2.44737C32.9993 1.79848 32.7384 1.17636 32.2744 0.717533C31.8104 0.258703 31.1812 0.000647912 30.525 0ZM26.4 28.5526C26.4 28.769 26.3131 28.9765 26.1584 29.1295C26.0036 29.2825 25.7938 29.3684 25.575 29.3684H2.475C2.2562 29.3684 2.04635 29.2825 1.89164 29.1295C1.73692 28.9765 1.65 28.769 1.65 28.5526V13.0526H13.2C13.4188 13.0526 13.6286 12.9667 13.7834 12.8137C13.9381 12.6607 14.025 12.4532 14.025 12.2368C14.025 12.0205 13.9381 11.813 13.7834 11.66C13.6286 11.507 13.4188 11.4211 13.2 11.4211H1.65V7.3421C1.65 7.12574 1.73692 6.91825 1.89164 6.76525C2.04635 6.61226 2.2562 6.52632 2.475 6.52632H9.9C10.1188 6.52632 10.3286 6.44037 10.4834 6.28738C10.6381 6.13439 10.725 5.92689 10.725 5.71053C10.725 5.49417 10.6381 5.28667 10.4834 5.13368C10.3286 4.98069 10.1188 4.89474 9.9 4.89474H6.6V2.44737C6.6 2.23101 6.68692 2.02351 6.84164 1.87052C6.99635 1.71753 7.2062 1.63158 7.425 1.63158H30.525C30.7438 1.63158 30.9536 1.71753 31.1084 1.87052C31.2631 2.02351 31.35 2.23101 31.35 2.44737V6.52632H27.8978C27.7284 6.05049 27.4141 5.63819 26.9982 5.34606C26.5823 5.05392 26.0852 4.89626 25.575 4.89474H14.85C14.6312 4.89474 14.4214 4.98069 14.2666 5.13368C14.1119 5.28667 14.025 5.49417 14.025 5.71053C14.025 5.92689 14.1119 6.13439 14.2666 6.28738C14.4214 6.44037 14.6312 6.52632 14.85 6.52632H25.575C25.7938 6.52632 26.0036 6.61226 26.1584 6.76525C26.3131 6.91825 26.4 7.12574 26.4 7.3421V11.4211H18.15C17.9312 11.4211 17.7214 11.507 17.5666 11.66C17.4119 11.813 17.325 12.0205 17.325 12.2368C17.325 12.4532 17.4119 12.6607 17.5666 12.8137C17.7214 12.9667 17.9312 13.0526 18.15 13.0526H26.4V28.5526ZM31.35 23.6579C31.35 23.8743 31.2631 24.0818 31.1084 24.2347C30.9536 24.3877 30.7438 24.4737 30.525 24.4737H28.05V8.15789H31.35V23.6579ZM17.7825 20.5318L12.8325 17.2686C12.7082 17.1868 12.5638 17.1398 12.4147 17.1327C12.2656 17.1256 12.1173 17.1586 11.9857 17.2283C11.8541 17.2979 11.744 17.4016 11.6673 17.5282C11.5906 17.6549 11.55 17.7997 11.55 17.9474V24.4737C11.55 24.6213 11.5906 24.7662 11.6673 24.8928C11.744 25.0194 11.8541 25.1231 11.9857 25.1928C12.1173 25.2624 12.2656 25.2955 12.4147 25.2884C12.5638 25.2813 12.7082 25.2343 12.8325 25.1524L17.7825 21.8893C17.8955 21.8148 17.9881 21.7138 18.0522 21.5954C18.1162 21.477 18.1498 21.3448 18.1498 21.2105C18.1498 21.0762 18.1162 20.944 18.0522 20.8256C17.9881 20.7072 17.8955 20.6063 17.7825 20.5318ZM13.2 22.9494V19.4717L15.84 21.2105L13.2 22.9494ZM14.025 8.97368C14.025 8.75732 14.1119 8.54982 14.2666 8.39683C14.4214 8.24384 14.6312 8.15789 14.85 8.15789H23.925C24.1438 8.15789 24.3536 8.24384 24.5084 8.39683C24.6631 8.54982 24.75 8.75732 24.75 8.97368C24.75 9.19005 24.6631 9.39754 24.5084 9.55054C24.3536 9.70353 24.1438 9.78947 23.925 9.78947H14.85C14.6312 9.78947 14.4214 9.70353 14.2666 9.55054C14.1119 9.39754 14.025 9.19005 14.025 8.97368ZM4.95 8.97368C4.95 9.13503 4.90161 9.29276 4.81096 9.42691C4.72031 9.56107 4.59146 9.66563 4.44071 9.72738C4.28997 9.78912 4.12408 9.80528 3.96405 9.7738C3.80402 9.74232 3.65702 9.66463 3.54164 9.55054C3.42626 9.43644 3.34768 9.29109 3.31585 9.13284C3.28402 8.97459 3.30036 8.81056 3.3628 8.6615C3.42524 8.51243 3.53098 8.38502 3.66665 8.29538C3.80232 8.20574 3.96183 8.1579 4.125 8.15789C4.3438 8.1579 4.55365 8.24384 4.70836 8.39683C4.86308 8.54982 4.95 8.75732 4.95 8.97368ZM7.425 8.97368C7.425 9.13503 7.37661 9.29276 7.28596 9.42691C7.19531 9.56107 7.06646 9.66563 6.91571 9.72738C6.76497 9.78912 6.59908 9.80528 6.43905 9.7738C6.27902 9.74232 6.13202 9.66463 6.01664 9.55054C5.90126 9.43644 5.82268 9.29109 5.79085 9.13284C5.75902 8.97459 5.77536 8.81056 5.8378 8.6615C5.90024 8.51243 6.00598 8.38502 6.14165 8.29538C6.27732 8.20574 6.43683 8.1579 6.6 8.15789C6.8188 8.1579 7.02865 8.24384 7.18336 8.39683C7.33808 8.54982 7.425 8.75732 7.425 8.97368ZM9.9 8.97368C9.9 9.13503 9.85161 9.29276 9.76096 9.42691C9.67031 9.56107 9.54146 9.66563 9.39071 9.72738C9.23996 9.78912 9.07408 9.80528 8.91405 9.7738C8.75402 9.74232 8.60702 9.66463 8.49164 9.55054C8.37626 9.43644 8.29768 9.29109 8.26585 9.13284C8.23402 8.97459 8.25036 8.81056 8.3128 8.6615C8.37524 8.51243 8.48098 8.38502 8.61665 8.29538C8.75233 8.20574 8.91183 8.1579 9.075 8.15789C9.2938 8.1579 9.50365 8.24384 9.65836 8.39683C9.81308 8.54982 9.9 8.75732 9.9 8.97368ZM15.675 11.4211C15.8382 11.4211 15.9977 11.4689 16.1333 11.5585C16.269 11.6482 16.3748 11.7756 16.4372 11.9247C16.4996 12.0737 16.516 12.2377 16.4841 12.396C16.4523 12.5542 16.3737 12.6996 16.2584 12.8137C16.143 12.9278 15.996 13.0055 15.8359 13.037C15.6759 13.0684 15.51 13.0523 15.3593 12.9905C15.2085 12.9288 15.0797 12.8242 14.989 12.6901C14.8984 12.5559 14.85 12.3982 14.85 12.2368C14.85 12.0205 14.9369 11.813 15.0916 11.66C15.2464 11.507 15.4562 11.4211 15.675 11.4211ZM13.2 5.71053C13.2 5.87187 13.1516 6.0296 13.061 6.16375C12.9703 6.29791 12.8415 6.40247 12.6907 6.46422C12.54 6.52596 12.3741 6.54212 12.214 6.51064C12.054 6.47916 11.907 6.40147 11.7916 6.28738C11.6763 6.17329 11.5977 6.02793 11.5659 5.86968C11.534 5.71143 11.5504 5.5474 11.6128 5.39834C11.6752 5.24927 11.781 5.12186 11.9167 5.03222C12.0523 4.94258 12.2118 4.89474 12.375 4.89474C12.5938 4.89474 12.8036 4.98069 12.9584 5.13368C13.1131 5.28667 13.2 5.49417 13.2 5.71053Z" fill="#444444"/>
</svg>
