<svg width="28" height="28" viewBox="0 0 28 28" fill="none" xmlns="http://www.w3.org/2000/svg">
<path d="M14.0013 23.3346C19.156 23.3346 23.3346 19.156 23.3346 14.0013C23.3346 8.84664 19.156 4.66797 14.0013 4.66797C8.84664 4.66797 4.66797 8.84664 4.66797 14.0013C4.66797 19.156 8.84664 23.3346 14.0013 23.3346Z" stroke="#7C7B7B" stroke-width="2" stroke-linecap="round" stroke-linejoin="round"/>
<path d="M14 2.33203V11.082" stroke="#7C7B7B" stroke-width="2" stroke-linecap="round" stroke-linejoin="round"/>
<path d="M22.1681 5.83203L16.0664 11.9337" stroke="#7C7B7B" stroke-width="2" stroke-linecap="round" stroke-linejoin="round"/>
<path d="M25.668 14H16.918" stroke="#7C7B7B" stroke-width="2" stroke-linecap="round" stroke-linejoin="round"/>
<path d="M22.1681 22.1681L16.0664 16.0664" stroke="#7C7B7B" stroke-width="2" stroke-linecap="round" stroke-linejoin="round"/>
<path d="M14 16.918V25.668" stroke="#7C7B7B" stroke-width="2" stroke-linecap="round" stroke-linejoin="round"/>
<path d="M11.9337 16.0664L5.83203 22.1681" stroke="#7C7B7B" stroke-width="2" stroke-linecap="round" stroke-linejoin="round"/>
<path d="M11.082 14H2.33203" stroke="#7C7B7B" stroke-width="2" stroke-linecap="round" stroke-linejoin="round"/>
<path d="M11.9337 11.9337L5.83203 5.83203" stroke="#7C7B7B" stroke-width="2" stroke-linecap="round" stroke-linejoin="round"/>
<path d="M13.9987 16.9154C15.6095 16.9154 16.9154 15.6095 16.9154 13.9987C16.9154 12.3879 15.6095 11.082 13.9987 11.082C12.3879 11.082 11.082 12.3879 11.082 13.9987C11.082 15.6095 12.3879 16.9154 13.9987 16.9154Z" stroke="#7C7B7B" stroke-width="2" stroke-linecap="round" stroke-linejoin="round"/>
</svg>
