<svg width="39" height="39" viewBox="0 0 39 39" fill="none" xmlns="http://www.w3.org/2000/svg">
<path d="M19.5 0C8.74421 0 0 8.74421 0 19.5C0 30.2558 8.74421 39 19.5 39C30.2558 39 39 30.2558 39 19.5C39 8.74421 30.2558 0 19.5 0ZM19.5 36.4958C10.14 36.4958 2.50421 28.86 2.50421 19.5C2.50421 10.14 10.14 2.50421 19.5 2.50421C28.86 2.50421 36.4958 10.14 36.4958 19.5C36.4958 28.86 28.86 36.4958 19.5 36.4958Z" fill="#444444"/>
<path d="M16.8727 7.30733C16.9138 7.55365 17.119 7.71786 17.3654 7.67681L18.1864 7.55365C19.1306 7.43049 20.0748 7.43049 20.978 7.51259L21.799 7.5947C22.0454 7.63575 22.2506 7.43049 22.2917 7.22523L22.4559 5.58312C22.4969 5.33681 22.2917 5.13154 22.0864 5.09049L21.2654 5.00838C20.198 4.88523 19.0485 4.88523 17.9811 5.00838L16.9959 5.17259C16.7496 5.21365 16.5854 5.41891 16.6264 5.66523L16.8727 7.30733Z" fill="#444444"/>
<path d="M7.67666 11.741L8.99035 12.6852C9.19561 12.8083 9.44193 12.7673 9.60614 12.6031L10.0988 11.9462C10.6735 11.2073 11.3303 10.5094 12.0693 9.93466L12.7261 9.44203C12.9314 9.27782 12.9314 9.0315 12.8082 8.82624L11.7819 7.55361C11.6177 7.34834 11.3714 7.34834 11.1661 7.4715L10.5093 8.00519C9.64719 8.70308 8.86719 9.48308 8.1693 10.3452L7.59456 11.1662C7.4714 11.3304 7.51245 11.6178 7.67666 11.741Z" fill="#444444"/>
<path d="M7.63579 21.5936L7.51263 20.7726C7.38947 19.8283 7.38947 18.8841 7.47158 17.981L7.55368 17.1599C7.59474 16.9136 7.38947 16.7083 7.18421 16.6673L5.54211 16.5031C5.29579 16.462 5.09053 16.6673 5.04947 16.8726L4.96737 17.6936C4.84421 18.761 4.84421 19.9105 4.96737 20.9778L5.13158 21.9631C5.17263 22.2094 5.37789 22.3736 5.62421 22.3326L7.22526 22.0862C7.51263 22.0452 7.67684 21.8399 7.63579 21.5936Z" fill="#444444"/>
<path d="M12.6033 29.3526L11.9464 28.8599C11.2075 28.2852 10.5096 27.6284 9.93487 26.8894L9.44223 26.2326C9.27802 26.0273 9.03171 26.0273 8.82645 26.1505L7.59487 27.2178C7.3896 27.382 7.3896 27.6284 7.51276 27.8336L8.00539 28.4905C8.70329 29.3526 9.48329 30.1326 10.3454 30.8305L11.1254 31.4052C11.3307 31.5284 11.577 31.4873 11.7412 31.3231L12.6854 30.0094C12.8496 29.7631 12.8086 29.4757 12.6033 29.3526Z" fill="#444444"/>
<path d="M22.086 31.6516C22.0449 31.4053 21.8397 31.2411 21.5934 31.2822L20.7723 31.4053C19.8281 31.5285 18.8839 31.5285 17.9807 31.4464L17.1597 31.3643C16.9134 31.3232 16.7081 31.5285 16.6671 31.7337L16.5028 33.3759C16.4618 33.6222 16.6671 33.8274 16.8723 33.8685L17.6934 33.9506C18.7607 34.0737 19.9102 34.0737 20.9776 33.9506L21.9628 33.7864C22.2092 33.7453 22.3734 33.5401 22.3323 33.2937L22.086 31.6516Z" fill="#444444"/>
<path d="M31.282 27.177L29.9684 26.2327C29.7631 26.1096 29.5168 26.1506 29.3526 26.3148L28.8599 26.9717C28.2852 27.7106 27.6284 28.4085 26.8894 28.9833L26.2326 29.4759C26.0273 29.6401 26.0273 29.8864 26.1505 30.0917L27.1768 31.3643C27.341 31.5696 27.5873 31.5696 27.7926 31.4464L28.4494 30.9538C29.3115 30.2559 30.0915 29.4759 30.7894 28.6138L31.3641 27.8338C31.4873 27.5875 31.4462 27.3412 31.282 27.177Z" fill="#444444"/>
<path d="M33.9095 17.8989L33.7453 16.9136C33.7043 16.6673 33.499 16.5031 33.2527 16.5441L31.6516 16.7904C31.4053 16.8315 31.2411 17.0368 31.2822 17.2831L31.4053 18.1041C31.5285 19.0483 31.5285 19.9926 31.4464 20.8957L31.3643 21.7168C31.3232 21.9631 31.5285 22.1683 31.7337 22.2094L33.3759 22.3736C33.6222 22.4147 33.8274 22.2094 33.8685 22.0041L33.9506 21.1831C34.0327 20.1157 34.0327 19.0073 33.9095 17.8989Z" fill="#444444"/>
<path d="M26.356 9.60638L27.0129 10.099C27.7518 10.6738 28.4497 11.3306 29.0244 12.0695L29.5171 12.7264C29.6813 12.9316 29.9276 12.9316 30.1329 12.8085L31.4055 11.7822C31.6107 11.618 31.6107 11.3716 31.4876 11.1664L30.9539 10.4685C30.256 9.60638 29.476 8.82638 28.6139 8.12849L27.7928 7.5948C27.5876 7.47164 27.3413 7.5127 27.1771 7.67691L26.2329 8.99059C26.1097 9.19586 26.1507 9.48322 26.356 9.60638Z" fill="#444444"/>
<path d="M23.6464 21.1833C23.6053 21.0601 23.6464 20.8959 23.7695 20.8138L26.8074 18.0633C27.3001 17.6117 27.0537 16.7496 26.3558 16.6675L22.2916 16.2159C22.1685 16.2159 22.0453 16.0928 21.9632 15.9696L20.2801 12.2338C19.9927 11.618 19.0895 11.618 18.8022 12.2338L17.119 15.9696C17.0779 16.0928 16.9548 16.1749 16.7906 16.2159L12.6853 16.6264C11.9874 16.7086 11.7411 17.5707 12.2337 18.0222L15.2716 20.7728C15.3948 20.8549 15.4358 21.0191 15.3948 21.1422L14.5737 25.1654C14.4506 25.8222 15.1485 26.3559 15.7643 26.0275L19.3358 24.0159C19.459 23.9338 19.6232 23.9338 19.7464 24.0159L23.3179 26.0275C23.9337 26.3559 24.6316 25.8633 24.5085 25.1654L23.6464 21.1833Z" fill="#444444"/>
</svg>
