<svg width="21" height="15" viewBox="0 0 21 15" fill="none" xmlns="http://www.w3.org/2000/svg">
<path d="M19.9497 15H1.05043C0.855449 15.0001 0.664294 14.9448 0.498385 14.8402C0.332475 14.7357 0.198365 14.5861 0.111081 14.4082C0.0237962 14.2302 -0.0132149 14.031 0.00419387 13.8329C0.0216026 13.6347 0.0927437 13.4454 0.209646 13.2861L9.65927 0.42895C9.75717 0.295763 9.88412 0.187664 10.0301 0.113212C10.176 0.0387602 10.3369 0 10.5001 0C10.6632 0 10.8241 0.0387602 10.9701 0.113212C11.116 0.187664 11.2429 0.295763 11.3408 0.42895L20.7905 13.2863C20.9073 13.4455 20.9784 13.6348 20.9958 13.833C21.0132 14.0311 20.9762 14.2303 20.8889 14.4082C20.8016 14.5861 20.6675 14.7357 20.5016 14.8402C20.3358 14.9447 20.1446 15.0001 19.9497 15Z" fill="#F1F1F1"/>
</svg>
