<svg width="29" height="29" viewBox="0 0 29 29" fill="none" xmlns="http://www.w3.org/2000/svg">
<path d="M14.5 0.125C19.0532 0.125 22.7578 3.82958 22.7578 8.38281C22.7578 11.2029 21.3362 13.6968 19.1719 15.1875L18.9688 15.3281L19.2021 15.4092C21.108 16.0668 22.8647 17.1267 24.3672 18.5469L24.665 18.835C27.3507 21.5208 28.8419 25.0818 28.874 28.875H26.8574C26.7901 22.1172 21.2734 16.6406 14.5 16.6406C7.72662 16.6406 2.20988 22.1172 2.14258 28.875H0.125977C0.157046 25.2018 1.5566 21.7466 4.08398 19.0928L4.33496 18.835C5.90091 17.2691 7.76489 16.1107 9.79785 15.4092L10.0322 15.3281L9.82812 15.1875C7.66374 13.6968 6.24219 11.2029 6.24219 8.38281C6.24219 3.82958 9.94676 0.125 14.5 0.125ZM14.5 2.14062C11.058 2.14062 8.25781 4.94071 8.25781 8.38281C8.25781 11.8249 11.058 14.625 14.5 14.625C17.942 14.625 20.7422 11.8249 20.7422 8.38281C20.7422 4.94071 17.942 2.14062 14.5 2.14062Z" fill="#444444" stroke="#A5A5A5" stroke-width="0.25"/>
</svg>
