<svg width="28" height="28" viewBox="0 0 28 28" fill="none" xmlns="http://www.w3.org/2000/svg">
<path d="M14 11.8867V16.3329" stroke="#7C7B7B" stroke-width="2" stroke-linecap="round" stroke-linejoin="round"/>
<path d="M14 2.33203V5.83203" stroke="#7C7B7B" stroke-width="2" stroke-linecap="round" stroke-linejoin="round"/>
<path d="M22.1654 15.1654V8.16536C22.1654 7.54653 21.9195 6.95303 21.4819 6.51545C21.0444 6.07786 20.4509 5.83203 19.832 5.83203H8.16536C7.54653 5.83203 6.95303 6.07786 6.51545 6.51545C6.07786 6.95303 5.83203 7.54653 5.83203 8.16536V15.1654" stroke="#7C7B7B" stroke-width="2" stroke-linecap="round" stroke-linejoin="round"/>
<path d="M22.6118 23.3332C23.8668 21.2152 24.5202 18.795 24.5018 16.3332L14.9491 12.0877C14.6509 11.9552 14.3282 11.8867 14.0018 11.8867C13.6754 11.8867 13.3527 11.9552 13.0545 12.0877L3.50179 16.3332C3.44779 19.6508 4.61446 22.8727 6.78013 25.3865" stroke="#7C7B7B" stroke-width="2" stroke-linecap="round" stroke-linejoin="round"/>
<path d="M2.33203 24.4987C3.03203 25.082 3.73203 25.6654 5.2487 25.6654C8.16536 25.6654 8.16536 23.332 11.082 23.332C12.5987 23.332 13.2987 23.9154 13.9987 24.4987C14.6987 25.082 15.3987 25.6654 16.9154 25.6654C19.832 25.6654 19.832 23.332 22.7487 23.332C24.2654 23.332 24.9654 23.9154 25.6654 24.4987" stroke="#7C7B7B" stroke-width="2" stroke-linecap="round" stroke-linejoin="round"/>
</svg>
